HIERARCHY
ROOT Hips
{
	OFFSET 0.00 0.00 0.00
	CHANNELS 6 Xposition Yposition Zposition Xrotation Yrotation Zrotation
	JOINT LeftUpLeg
	{
		OFFSET 3.25772 0.00000 0.00000
		CHANNELS 3 Xrotation Yrotation Zrotation
		JOINT LeftLeg
		{
			OFFSET 0.00000 -15.35355 0.00000
			CHANNELS 3 Xrotation Yrotation Zrotation
			JOINT LeftFoot
			{
				OFFSET 0.00000 -16.48949 0.00000
				CHANNELS 3 Xrotation Yrotation Zrotation
				JOINT LeftToeBase
				{
					OFFSET 0.00000 -1.72224 6.42750
					CHANNELS 3 Xrotation Yrotation Zrotation
					End Site
					{
						OFFSET 0.00000 0.00000 2.95275
					}
				}
			}
		}
	}
	JOINT RightUpLeg
	{
		OFFSET -3.25772 0.00000 0.00000
		CHANNELS 3 Xrotation Yrotation Zrotation
		JOINT RightLeg
		{
			OFFSET 0.00000 -15.35355 0.00000
			CHANNELS 3 Xrotation Yrotation Zrotation
			JOINT RightFoot
			{
				OFFSET 0.00000 -16.48949 0.00000
				CHANNELS 3 Xrotation Yrotation Zrotation
				JOINT RightToeBase
				{
					OFFSET 0.00000 -1.72224 6.42750
					CHANNELS 3 Xrotation Yrotation Zrotation
					End Site
					{
						OFFSET 0.00000 0.00000 2.95275
					}
				}
			}
		}
	}
	JOINT Spine
	{
		OFFSET 0.00000 0.03937 0.00000
		CHANNELS 3 Xrotation Yrotation Zrotation
		JOINT Spine1
		{
			OFFSET 0.00000 10.14986 0.00000
			CHANNELS 3 Xrotation Yrotation Zrotation
			JOINT Neck
			{
				OFFSET 0.00000 9.84250 0.00000
				CHANNELS 3 Xrotation Yrotation Zrotation
				JOINT Head
				{
					OFFSET 0.00000 4.54023 0.00000
					CHANNELS 3 Xrotation Yrotation Zrotation
					End Site
					{
						OFFSET 0.00000 4.52755 0.00000
					}
				}
			}
			JOINT LeftShoulder
			{
				OFFSET 0.00000 9.84250 0.00000
				CHANNELS 3 Xrotation Yrotation Zrotation
				JOINT LeftArm
				{
					OFFSET 7.21510 -0.00003 0.00000
					CHANNELS 3 Xrotation Yrotation Zrotation
					JOINT LeftForeArm
					{
						OFFSET 10.66411 -0.00004 0.00000
						CHANNELS 3 Xrotation Yrotation Zrotation
						JOINT LeftHand
						{
							OFFSET 8.93656 -0.00003 0.00000
							CHANNELS 3 Xrotation Yrotation Zrotation
							JOINT L_Wrist_End
							{
								OFFSET 3.93700 -0.00001 0.00000
								CHANNELS 3 Xrotation Yrotation Zrotation
							}
						}
					}
				}
			}
			JOINT RightShoulder
			{
				OFFSET 0.00000 9.84250 0.00000
				CHANNELS 3 Xrotation Yrotation Zrotation
				JOINT RightArm
				{
					OFFSET -7.21510 -0.00003 0.00000
					CHANNELS 3 Xrotation Yrotation Zrotation
					JOINT RightForeArm
					{
						OFFSET -10.66411 -0.00004 0.00000
						CHANNELS 3 Xrotation Yrotation Zrotation
						JOINT RightHand
						{
							OFFSET -8.93656 -0.00003 0.00000
							CHANNELS 3 Xrotation Yrotation Zrotation
							JOINT R_Wrist_End
							{
								OFFSET -5.41338 -0.00002 0.00000
								CHANNELS 3 Xrotation Yrotation Zrotation
							}
						}
					}
				}
			}
		}
	}
}
MOTION
Frames: 10
Frame Time: 0.008333
 2.3661 32.6332 57.6633 -0.3817 0.1343 2.2873 -16.9700 8.7917 3.5143 22.8274 -0.0000 0.0000 -4.6757 -6.2592 -0.1320 -35.9071 0.0000 -0.0000 8.4185 -0.0427 -6.4826 44.7520 -0.0000 0.0000 4.9595 -1.2385 2.7845 -53.4201 0.0000 0.0000 -15.2925 4.7580 -1.8781 26.6081 3.1703 -8.3626 -14.9834 -5.9403 7.6635 0.5391 -20.6861 -12.9697 17.1814 9.7925 5.1398 -11.9526 -36.2463 -72.4802 -0.0001 -23.0945 -0.0000 -1.1033 2.0080 16.5852 -0.0000 0.0000 -0.0000 11.6512 -0.1308 -7.1988 -9.0318 40.8329 69.4743 -0.0003 53.0421 0.0001 -14.3874 -13.7485 -17.8684 -0.0000 0.0000 -0.0000
 2.4695 32.6309 58.0018 -0.5147 0.4644 2.2484 -16.5323 9.2713 3.4433 23.2224 -0.0000 0.0000 -5.1232 -7.0613 0.3046 -35.6875 0.0000 -0.0000 7.4395 -0.1491 -6.5623 47.3654 -0.0000 0.0000 6.0023 -1.1890 2.8469 -51.8307 0.0000 0.0000 -15.1981 4.5908 -1.9228 26.7185 2.9865 -8.3504 -14.9931 -6.0737 7.6459 0.5101 -20.6732 -12.8638 16.8675 9.6535 5.2042 -11.9486 -36.4778 -72.5665 -0.0001 -23.6414 -0.0000 -0.5894 2.7425 16.6249 -0.0000 -0.0000 0.0000 11.7835 -0.4502 -7.1290 -8.9760 40.6227 69.7112 -0.0003 52.6490 0.0001 -14.8143 -13.8014 -17.4604 -0.0000 -0.0000 0.0000
 2.5444 32.6154 58.3589 -0.6674 0.4832 2.2907 -15.9682 9.8196 3.3855 23.6053 -0.0000 0.0000 -5.6849 -7.5265 0.3773 -35.6133 0.0000 -0.0000 6.1672 -0.4357 -6.9147 50.3958 -0.0000 0.0000 7.1418 -0.8915 2.9234 -50.6197 0.0000 0.0000 -15.0691 4.4797 -2.0631 26.5721 2.8903 -8.3482 -14.6630 -5.9291 7.6042 0.3933 -20.5752 -12.5805 17.1120 9.5803 5.3271 -12.3227 -36.6494 -72.6805 -0.0001 -24.0605 -0.0000 0.1002 4.3052 15.8624 -0.0000 0.0000 -0.0000 12.1589 -0.4279 -7.3068 -9.1219 40.5109 70.2667 -0.0003 52.0759 0.0001 -14.8752 -13.6715 -17.8624 -0.0000 0.0000 -0.0000
 2.6438 32.6137 58.7032 -0.8196 0.6306 2.4649 -15.3521 10.0151 3.0710 23.9311 -0.0000 0.0000 -6.2555 -7.5851 0.8102 -35.5219 0.0000 -0.0000 4.9260 -0.5537 -7.3229 53.3141 -0.0000 0.0000 8.0503 -0.7934 3.1736 -48.1498 0.0000 0.0000 -14.8794 4.2782 -2.2684 26.4720 2.6241 -8.4694 -14.7033 -5.8578 7.8197 0.5900 -20.3725 -12.5140 17.0915 9.5717 5.3574 -12.3491 -36.8602 -72.6524 -0.0001 -24.6730 -0.0000 -0.0012 4.7125 15.8367 -0.0000 -0.0000 0.0000 12.3616 -0.2648 -6.9474 -8.5109 40.0173 69.9560 -0.0003 52.1574 0.0001 -14.7299 -13.9492 -17.3709 -0.0000 0.0000 -0.0000
 2.7260 32.6074 59.0469 -0.9986 0.8674 2.3832 -14.9395 9.4441 2.9173 24.6444 -0.0000 0.0000 -6.8895 -7.2190 1.0469 -35.4551 0.0000 0.0000 3.8254 -0.5677 -7.3345 55.8738 -0.0000 0.0000 9.1884 -0.7884 4.0462 -47.4028 0.0000 0.0000 -14.7999 4.0995 -2.3098 26.6304 2.4706 -8.3889 -14.5704 -5.7994 7.6944 0.3768 -20.2610 -12.1125 16.7920 9.4745 5.4566 -12.4889 -37.0349 -72.7793 -0.0001 -25.3583 -0.0000 0.5534 4.7780 15.6885 -0.0000 -0.0000 0.0000 12.1151 -0.7241 -6.8131 -8.1453 40.2889 70.0711 -0.0003 51.6739 0.0001 -14.8835 -13.8576 -17.3771 -0.0000 -0.0000 0.0000
 2.8009 32.6092 59.3739 -1.1927 0.6955 2.3424 -14.3900 9.6693 2.9090 25.1298 -0.0000 0.0000 -7.3801 -7.1986 1.2465 -35.6527 0.0000 0.0000 2.5693 -0.0049 -7.2941 58.6205 -0.0000 0.0000 9.7314 -1.5553 3.9609 -43.0543 0.0000 -0.0000 -14.6368 3.9980 -2.3607 26.6056 2.3989 -8.3429 -14.3652 -5.7146 7.5966 0.2732 -20.1451 -11.7329 16.8914 9.3695 5.4867 -12.4911 -37.6225 -72.5808 -0.0001 -25.9843 -0.0000 0.4417 4.3966 16.1035 -0.0000 0.0000 -0.0000 12.3392 -0.6901 -6.7830 -7.9717 40.3257 70.1103 -0.0003 51.1558 0.0001 -15.1327 -13.4155 -17.1841 -0.0000 -0.0000 0.0000
 2.8884 32.6108 59.7121 -1.3420 0.5995 2.2743 -13.7008 9.8910 2.8835 25.2672 -0.0000 0.0000 -7.9284 -7.2787 1.3079 -35.7203 0.0000 0.0000 1.3118 0.2726 -7.3019 61.1060 -0.0000 0.0000 10.2389 -2.1868 3.9638 -39.4979 0.0000 0.0000 -14.5626 3.8057 -2.3796 26.6094 2.2583 -8.2169 -14.0745 -5.4541 7.5051 -0.0005 -20.0083 -11.4955 16.9653 9.2610 5.4387 -12.6293 -37.8586 -72.5169 -0.0001 -26.7048 -0.0000 -0.2273 4.5729 16.1936 -0.0000 -0.0000 0.0000 12.4635 -0.8024 -6.7289 -7.7174 40.4231 70.0175 -0.0003 50.7601 0.0001 -15.2675 -13.2812 -17.3322 -0.0000 0.0000 -0.0000
 2.9713 32.6180 60.0335 -1.5482 0.5422 2.1953 -12.9964 10.3751 2.9265 25.4057 -0.0000 0.0000 -8.4349 -7.6067 1.3630 -35.3575 0.0000 -0.0000 0.1183 0.3493 -7.3483 63.3365 -0.0000 0.0000 10.5254 -2.8519 4.2921 -36.3738 0.0000 -0.0000 -14.4764 3.5538 -2.4805 26.6639 2.1358 -7.9769 -13.6884 -4.9195 7.6075 -0.4620 -19.8752 -11.4418 16.8264 9.1781 5.4756 -12.7182 -38.2715 -72.6034 -0.0001 -27.2708 -0.0000 -1.4004 4.3062 16.9543 -0.0000 -0.0000 0.0000 12.8653 -0.7674 -6.7986 -7.6628 40.4684 69.9219 -0.0003 50.3668 0.0001 -14.8622 -13.1017 -17.0398 -0.0000 -0.0000 0.0000
 3.0307 32.6217 60.3621 -1.9471 0.4304 2.0280 -12.1101 10.5505 3.0498 25.5786 -0.0000 0.0000 -8.9306 -7.6675 1.3586 -35.0948 0.0000 -0.0000 -0.8477 0.3716 -7.2401 65.4185 -0.0000 0.0000 10.4006 -3.6879 4.4159 -34.7860 0.0000 0.0000 -14.1171 3.2811 -2.6809 26.5607 2.1943 -7.4778 -13.3321 -4.7572 7.4601 -0.7913 -19.6833 -11.3629 17.2997 9.2212 5.2763 -13.2625 -39.0308 -72.5092 -0.0001 -27.9237 -0.0000 -2.1929 4.0395 17.9080 -0.0000 -0.0000 0.0000 13.0509 -0.8054 -7.0122 -7.4147 40.4041 70.0333 -0.0003 50.0050 0.0001 -14.9703 -13.0077 -16.9837 -0.0000 0.0000 -0.0000
 3.0834 32.6530 60.7191 -2.3757 0.4903 1.6826 -11.3475 10.8531 3.3990 26.0156 -0.0000 0.0000 -9.3411 -7.9388 1.6888 -34.8069 0.0000 -0.0000 -1.5663 0.1832 -6.9342 67.0036 -0.0000 0.0000 9.9451 -4.5874 4.5751 -35.2894 0.0000 -0.0000 -13.9832 2.8223 -2.8236 26.8629 2.1534 -6.7369 -13.7150 -4.8453 7.0893 -0.3022 -18.9628 -11.1589 16.9940 8.8786 5.0973 -12.8438 -38.8281 -72.4105 -0.0001 -29.0028 -0.0000 -3.2853 3.5654 18.8363 -0.0000 -0.0000 0.0000 12.8312 -1.1696 -7.2290 -7.1676 40.7936 70.1191 -0.0002 49.4386 0.0001 -15.5087 -12.9054 -16.9810 -0.0000 -0.0000 0.0000
